<svg xmlns="http://www.w3.org/2000/svg" width="181" height="45" viewBox="0 0 181 45">
  <g id="logo_copy" data-name="logo copy" transform="translate(0)">
    <g id="Group" transform="translate(0.366 8.272)">
      <path id="Fill_1" data-name="Fill 1" d="M11.009,25.728h0c-1.552,0-2.959-.06-4.3-.182a7.02,7.02,0,0,1-6.35-5.225A14.061,14.061,0,0,1,.578,10.8,7.327,7.327,0,0,1,7.489,6.083C8.552,6.023,9.686,6,11.166,6c.645,0,1.3.005,1.935.01h.05c.647,0,1.315.01,1.973.01h1.24l0-1.974V.123a.407.407,0,0,1,.417-.4h4.433a.407.407,0,0,1,.417.4v4.35l-.005,13.021a10.71,10.71,0,0,1-.912,4.682,5.6,5.6,0,0,1-4.86,3.39C14,25.677,12.462,25.728,11.009,25.728Zm1.848-15c-1.353,0-2.389,0-3.359.006a6.65,6.65,0,0,0-1.086.1,2.7,2.7,0,0,0-2.336,1.928,10.3,10.3,0,0,0-.042,5.81,2.744,2.744,0,0,0,2.722,2.109c.835.035,1.679.052,2.511.052.92,0,1.848-.022,2.757-.064a2.429,2.429,0,0,0,2.483-2.281,9.959,9.959,0,0,0,.121-1.551c.01-1.336.009-2.7.007-4.009q0-.771,0-1.541v-.529l-.169-.012c-.1-.007-.171-.013-.247-.013H12.857Z" transform="translate(0 0)" fill="#fff"/>
      <path id="Fill_3" data-name="Fill 3" d="M22.2,6.639V.4a.416.416,0,0,0-.428-.4H17.151a.415.415,0,0,0-.427.4V6.639c0,1.63,0,2.2,0,4.924a3.232,3.232,0,0,1-3.365,3.461q-.908.054-1.822.064l-.478,0q-.253,0-.505,0-.861-.014-1.716-.063a3.232,3.232,0,0,1-3.365-3.461c0-2.724,0-3.294,0-4.924V.4A.415.415,0,0,0,5.043,0H.429A.415.415,0,0,0,0,.4V6.639H.014C0,8.651-.022,9.59.061,12.692c.1,3.759,2.773,6.478,6.733,7.035a28.349,28.349,0,0,0,4.228.246,29.04,29.04,0,0,0,4.38-.246c3.961-.557,6.634-3.276,6.734-7.035.083-3.1.061-4.042.047-6.054Z" transform="translate(69.918 6.024)" fill="#fff"/>
      <path id="Fill_5" data-name="Fill 5" d="M15.1,19.9H10.864c-.225,0-.442-.005-.641-.01-1.4-.037-2.02-.616-2.09-1.9-.009-.165-.01-.33-.01-.5V11.449h0V9.628h5.453a.416.416,0,0,0,.433-.4V4.992a.416.416,0,0,0-.433-.4H8.124V.4A.416.416,0,0,0,7.692,0H3.077a.416.416,0,0,0-.433.4v4.2H.432a.416.416,0,0,0-.432.4V9.23a.416.416,0,0,0,.432.4H2.645v2.949s0,0,0,0c0,1.533-.013,3.065.018,4.6a20.1,20.1,0,0,0,.286,3.1,4.5,4.5,0,0,0,4.414,4.006c1.1.109,2.3.126,3.5.126v0H15.1a.417.417,0,0,0,.434-.4V20.3a.417.417,0,0,0-.434-.4" transform="translate(51.051 1.584)" fill="#fff"/>
      <path id="Fill_7" data-name="Fill 7" d="M10.877,19.7c-1.66,0-3.038-.007-4.338-.022A11.873,11.873,0,0,1,4.1,19.374,4.818,4.818,0,0,1,.338,15.79a7.928,7.928,0,0,1-.023-4.508A4.65,4.65,0,0,1,4.4,7.834a18.293,18.293,0,0,1,2.652-.2c.925-.01,1.9-.014,3.171-.014l1.809,0h.944l1.472,0h.691C15.122,7.411,15.111,7.2,15.1,7a9.646,9.646,0,0,0-.133-1.322A1.337,1.337,0,0,0,13.784,4.6a6.4,6.4,0,0,0-1-.068c-.374,0-.677,0-.925,0H5.091a.4.4,0,0,1-.4-.4V.106a.4.4,0,0,1,.4-.4h6.4c.018,0,1.9.024,2.526.033a6.949,6.949,0,0,1,2.294.489,5.43,5.43,0,0,1,3.621,4.922,12.688,12.688,0,0,1,.06,1.352c.006,3.11.006,5.917,0,8.581,0,.624-.023,1.134-.069,1.6a2.847,2.847,0,0,1-2.776,2.894,9.794,9.794,0,0,1-1.4.112l-1.119,0C13.4,19.7,12.129,19.7,10.877,19.7Zm1.812-7c-1.747,0-3.329,0-4.836,0a2.545,2.545,0,0,0-.378.038l-.066.01C6.474,12.89,6,13.377,6,14.2A1.421,1.421,0,0,0,7.45,15.67a6.653,6.653,0,0,0,.694.033h6.473c.229,0,.453,0,.675-.019a.662.662,0,0,0,.7-.675c.009-.523.007-1.036.005-1.58q0-.34,0-.687c-.047-.007-.085-.014-.118-.02a.724.724,0,0,0-.13-.017Z" transform="translate(26.635 6.024)" fill="#fff"/>
      <path id="Fill_9" data-name="Fill 9" d="M15.442,9.988,24.274.4c.2-.223.185-.4-.045-.4H18.592a1.274,1.274,0,0,0-.786.4l-5.6,6.076L6.61.4A1.278,1.278,0,0,0,5.823,0H.186C-.043,0-.063.18.142.4L8.974,9.988.142,19.574c-.2.222-.185.4.045.4H5.823a1.279,1.279,0,0,0,.787-.4l5.6-6.076,5.6,6.076a1.276,1.276,0,0,0,.786.4H24.23c.229,0,.249-.18.045-.4Z" transform="translate(96.553 6.024)" fill="#fff"/>
    </g>
  </g>
</svg>
