<svg id="_2780034" data-name="2780034" xmlns="http://www.w3.org/2000/svg" width="89" height="88" viewBox="0 0 89 88">
  <path id="Shape" d="M31.72,88a3.887,3.887,0,0,1-3.9-3.86v-.021a3.887,3.887,0,0,1,3.9-3.86h4.021l2.6-7.636H6.115A6.092,6.092,0,0,1,0,66.57V18.1a6.092,6.092,0,0,1,6.115-6.054H23.288L43.843.176a1.319,1.319,0,0,1,1.315,0l20.554,11.87H82.884A6.092,6.092,0,0,1,89,18.1V28.739a1.3,1.3,0,0,1-2.607,0V18.1a3.5,3.5,0,0,0-3.508-3.476H70.177l4.476,2.585h7.833a1.3,1.3,0,0,1,1.3,1.289V66.172a1.3,1.3,0,0,1-1.3,1.289H17.861a1.289,1.289,0,1,1,0-2.578h63.32V19.787H75.475v15.77a1.3,1.3,0,0,1-1.3,1.29H69a1.3,1.3,0,0,1-1.3-1.29v-11.9l-3.952,2.282.031,17.244a1.288,1.288,0,0,1-.647,1.116L45.158,54.675a1.313,1.313,0,0,1-1.315,0L25.871,44.3a1.287,1.287,0,0,1-.646-1.116l.031-17.244-10.649-6.15H7.818V64.882h4.007a1.289,1.289,0,1,1,0,2.578H6.514a1.3,1.3,0,0,1-1.3-1.289V18.5a1.3,1.3,0,0,1,1.3-1.289h7.833l4.477-2.585H6.115A3.5,3.5,0,0,0,2.607,18.1V66.57a3.5,3.5,0,0,0,3.508,3.475H82.884a3.5,3.5,0,0,0,3.509-3.475V34.7A1.3,1.3,0,0,1,89,34.7V66.57a6.093,6.093,0,0,1-6.116,6.053H50.66l2.6,7.636h4.021a3.887,3.887,0,0,1,3.9,3.86v.021a3.887,3.887,0,0,1-3.9,3.86Z"/>
</svg>
